<svg width="40" height="40" viewBox="0 0 40 40" fill="none" xmlns="http://www.w3.org/2000/svg">
<path d="M22.384 9.04992V11.2833C18.0173 11.6333 15.534 14.4333 15.534 19.0499V26.6666H9.05065C5.23398 26.6666 3.33398 24.7666 3.33398 20.9499V9.04992C3.33398 5.23325 5.23398 3.33325 9.05065 3.33325H16.6673C20.484 3.33325 22.384 5.23325 22.384 9.04992Z" fill="#1D75BC"/>
<path d="M30.9505 13.3333H23.3339C19.5172 13.3333 17.6172 15.2333 17.6172 19.0499V30.9499C17.6172 34.7666 19.5172 36.6666 23.3339 36.6666H30.9505C34.7672 36.6666 36.6672 34.7666 36.6672 30.9499V19.0499C36.6672 15.2333 34.7672 13.3333 30.9505 13.3333ZM30.2172 26.2499H28.7505V27.7166C28.7505 28.3999 28.1839 28.9666 27.5005 28.9666C26.8172 28.9666 26.2505 28.3999 26.2505 27.7166V26.2499H24.7839C24.1005 26.2499 23.5339 25.6833 23.5339 24.9999C23.5339 24.3166 24.1005 23.7499 24.7839 23.7499H26.2505V22.2833C26.2505 21.5999 26.8172 21.0333 27.5005 21.0333C28.1839 21.0333 28.7505 21.5999 28.7505 22.2833V23.7499H30.2172C30.9005 23.7499 31.4672 24.3166 31.4672 24.9999C31.4672 25.6833 30.9005 26.2499 30.2172 26.2499Z" fill="#1D75BC"/>
</svg>
