<svg width="24" height="24" viewBox="0 0 24 24" fill="none" xmlns="http://www.w3.org/2000/svg">
<path opacity="0.4" d="M11.5 5.71968V20.6491C9.5021 19.6056 6.25133 18.5526 4.09737 18.2645C4.09699 18.2645 4.09661 18.2644 4.09623 18.2644L3.80832 18.2246L3.80833 18.2246L3.80202 18.2238C3.0961 18.1356 2.5 17.4517 2.5 16.7399V4.65994C2.5 3.76056 3.22179 3.09287 4.11813 3.16819L4.11966 3.16831C6.13912 3.33179 9.24237 4.36595 10.9554 5.43421L10.9554 5.43427L10.9628 5.43869L11.2128 5.58869C11.3028 5.64272 11.3996 5.68638 11.5 5.71968Z" fill="white" stroke="#0F6CBF"/>
<path d="M22 4.67003V16.74C22 17.7 21.22 18.6 20.26 18.72L19.93 18.76C17.75 19.05 14.39 20.16 12.47 21.22C12.34 21.3 12.18 21.33 12 21.33V5.30003C12.19 5.30003 12.38 5.25003 12.53 5.16003L12.7 5.05003C14.48 3.93003 17.67 2.86003 19.77 2.68003H19.83C21.02 2.58003 22 3.47003 22 4.67003Z" fill="#0F6CBF"/>
<path d="M7.75 9.23999H5.5C5.09 9.23999 4.75 8.89999 4.75 8.48999C4.75 8.07999 5.09 7.73999 5.5 7.73999H7.75C8.16 7.73999 8.5 8.07999 8.5 8.48999C8.5 8.89999 8.16 9.23999 7.75 9.23999Z" fill="#0F6CBF"/>
<path d="M8.5 12.24H5.5C5.09 12.24 4.75 11.9 4.75 11.49C4.75 11.08 5.09 10.74 5.5 10.74H8.5C8.91 10.74 9.25 11.08 9.25 11.49C9.25 11.9 8.91 12.24 8.5 12.24Z" fill="#0F6CBF"/>
</svg>
