<svg width="25" height="24" viewBox="0 0 25 24" fill="none" xmlns="http://www.w3.org/2000/svg">
<path opacity="0.4" d="M20.3217 18.2645C18.1597 18.5526 14.8958 19.6065 12.8916 20.6505V5.72006C12.9924 5.6868 13.0896 5.64315 13.18 5.58909C13.18 5.58908 13.18 5.58908 13.18 5.58907L13.4308 5.43913L13.4309 5.43919L13.4382 5.43464C15.1574 4.36621 18.2716 3.33185 20.2985 3.16833L20.3 3.1682C21.2023 3.09264 21.9256 3.7623 21.9256 4.65993V16.74C21.9256 17.4503 21.3283 18.1353 20.6179 18.2238L20.6179 18.2237L20.6116 18.2246L20.3227 18.2643C20.3224 18.2644 20.3221 18.2644 20.3217 18.2645Z" fill="#FDFDF5" stroke="#003D86"/>
<path d="M2.35742 4.67002V16.74C2.35742 17.7 3.14007 18.6 4.10333 18.72L4.43447 18.76C6.62189 19.05 9.99334 20.16 11.9199 21.22C12.0503 21.3 12.2108 21.3301 12.3914 21.3301V5.30002C12.2008 5.30002 12.0101 5.25001 11.8596 5.16001L11.689 5.05002C9.90299 3.93002 6.70213 2.86003 4.59499 2.68003H4.53479C3.34074 2.58003 2.35742 3.47002 2.35742 4.67002Z" fill="#003D86"/>
<path d="M19.415 2.78003V7.07001C19.415 7.47001 18.9734 7.70999 18.6323 7.48999L17.4082 6.67999L16.184 7.48999C15.8529 7.70999 15.4014 7.47001 15.4014 7.07001V3.91998C16.7158 3.39998 18.1808 2.98003 19.415 2.78003Z" fill="#003D86"/>
</svg>
