<svg width="35" height="34" viewBox="0 0 35 34" fill="none" xmlns="http://www.w3.org/2000/svg">
<path d="M17.6412 31.1666C16.8897 31.1666 16.1691 30.8681 15.6377 30.3367C15.1064 29.8054 14.8079 29.0847 14.8079 28.3333H20.4745C20.4745 29.0847 20.176 29.8054 19.6447 30.3367C19.1133 30.8681 18.3926 31.1666 17.6412 31.1666ZM28.9745 26.9166H6.30786V24.0833L9.14119 22.6666V14.8749C9.14119 9.97042 11.1543 6.79 14.8079 5.92158V2.83325H20.4745V5.92158C24.1281 6.78858 26.1412 9.96759 26.1412 14.8749V22.6666L28.9745 24.0833V26.9166ZM17.6412 8.14575C16.7904 8.09081 15.9394 8.25005 15.166 8.6089C14.3926 8.96775 13.7215 9.51477 13.2141 10.1999C12.3323 11.5947 11.8996 13.2265 11.9745 14.8749V24.0833H23.3079V14.8749C23.3827 13.2265 22.95 11.5947 22.0683 10.1999C21.5609 9.51477 20.8898 8.96775 20.1164 8.6089C19.343 8.25005 18.492 8.09081 17.6412 8.14575Z" fill="#E7E7E7"/>
<circle cx="9.384" cy="8.74289" r="4.85714" fill="#B0D5ED"/>
</svg>
