<svg width="28" height="28" viewBox="0 0 14 14" fill="none" xmlns="http://www.w3.org/2000/svg">
<g clip-path="url(#clip0_2606_12305)">
<path fill-rule="evenodd" clip-rule="evenodd" d="M6.875 1C6.875 0.654822 7.15482 0.375 7.5 0.375H12C12.8975 0.375 13.625 1.10254 13.625 2V8C13.625 8.89746 12.8975 9.625 12 9.625H8C7.65482 9.625 7.375 9.34518 7.375 9C7.375 8.65482 7.65482 8.375 8 8.375H12C12.2071 8.375 12.375 8.20711 12.375 8V2C12.375 1.79289 12.2071 1.625 12 1.625H7.5C7.15482 1.625 6.875 1.34518 6.875 1ZM4 0.5C2.89543 0.5 2 1.39543 2 2.5C2 3.32493 2.49944 4.03321 3.21243 4.33896C1.6587 4.69625 0.5 6.08781 0.5 7.75V9.25C0.5 9.52614 0.723858 9.75 1 9.75H2.06224L2.50439 13.0661C2.53751 13.3145 2.7494 13.5 3 13.5H5.5C5.76127 13.5 5.97849 13.2988 5.99853 13.0383L6.46302 7H8.625C9.38439 7 10 6.38439 10 5.625C10 4.86561 9.38439 4.25 8.625 4.25H4.969C5.58386 3.90882 6 3.25301 6 2.5C6 1.39543 5.10457 0.5 4 0.5Z" fill="#1d75bc"/>
</g>
<defs>
<clipPath id="clip0_2606_12305">
<rect width="14" height="14" fill="white"/>
</clipPath>
</defs>
</svg>
