<svg width="25" height="24" viewBox="0 0 25 24" fill="none" xmlns="http://www.w3.org/2000/svg">
<path d="M14.0047 2.8799L9.29879 2.1399C5.37548 1.5299 3.55933 2.8499 2.93722 6.7599L2.1947 11.4499C1.79334 14.0099 2.21477 15.6699 3.6697 16.6799C4.43229 17.2199 5.47582 17.5799 6.83042 17.7899L11.5364 18.5299C15.4597 19.1399 17.2758 17.8199 17.898 13.9099L18.6304 9.2199C18.7508 8.4499 18.801 7.7599 18.7609 7.1499C18.6304 4.6499 17.1554 3.3699 14.0047 2.8799ZM8.33552 9.3499C7.16154 9.3499 6.20831 8.3999 6.20831 7.2399C6.20831 6.0699 7.16154 5.1199 8.33552 5.1199C9.49947 5.1199 10.4527 6.0699 10.4527 7.2399C10.4527 8.3999 9.49947 9.3499 8.33552 9.3499Z" fill="#003D86"/>
<path d="M20.6375 13.4701L19.1324 17.9801C17.8781 21.7401 15.8713 22.7401 12.0985 21.4901L7.57317 19.9901C6.15837 19.5201 5.1349 18.9401 4.47266 18.2101C5.1048 18.4601 5.83728 18.6501 6.67011 18.7801L11.3861 19.5201C12.0283 19.6201 12.6303 19.6701 13.1922 19.6701C16.5035 19.6701 18.2795 17.8901 18.8916 14.0601L19.624 9.37006C19.7244 8.79006 19.7645 8.28006 19.7645 7.81006C21.2897 9.06006 21.5104 10.8401 20.6375 13.4701Z" fill="#003D86"/>
</svg>
