<svg width="36" height="37" viewBox="0 0 36 37" fill="none" xmlns="http://www.w3.org/2000/svg">
<path d="M26.415 16.285H30.75C31.2989 16.285 31.75 16.7361 31.75 17.285V25.145C31.75 27.6998 30.8626 29.6513 29.4627 30.9662C28.0578 32.2856 26.0979 33 23.895 33H12.105C9.90211 33 7.94218 32.2856 6.5373 30.9662C5.13737 29.6513 4.25 27.6998 4.25 25.145V11.855C4.25 9.30016 5.13737 7.34866 6.5373 6.03383C7.94218 4.71436 9.90211 4 12.105 4H18.465C19.0139 4 19.465 4.45114 19.465 5V9.335C19.465 13.1661 22.5839 16.285 26.415 16.285Z" fill="white" stroke="#003D86"/>
<path d="M26.1503 13.215L26.1503 13.215H26.145C24.1429 13.215 22.52 11.6108 22.52 9.70999V4.47499C22.52 4.09644 23.0244 3.84645 23.3465 4.16854C24.8445 5.66661 27.0937 7.93632 29.0623 9.92283C30.01 10.8792 30.8927 11.7699 31.5952 12.4773L31.5965 12.4785C31.8522 12.7342 31.6964 13.23 31.245 13.23C29.549 13.23 27.5721 13.23 26.1503 13.215ZM31.245 13.73C32.1 13.73 32.55 12.725 31.95 12.125C31.2483 11.4184 30.3662 10.5282 29.4188 9.5722C27.4498 7.58525 25.1988 5.31381 23.7 3.81499C23.085 3.19999 22.02 3.61999 22.02 4.47499V9.70999C22.02 11.9 23.88 13.715 26.145 13.715C27.5699 13.73 29.5498 13.73 31.2447 13.73H31.245Z" fill="#FDFDF5" stroke="#003D86"/>
<path d="M20.25 21.125H11.25C10.635 21.125 10.125 20.615 10.125 20C10.125 19.385 10.635 18.875 11.25 18.875H20.25C20.865 18.875 21.375 19.385 21.375 20C21.375 20.615 20.865 21.125 20.25 21.125Z" fill="#003D86"/>
<path d="M17.25 27.125H11.25C10.635 27.125 10.125 26.615 10.125 26C10.125 25.385 10.635 24.875 11.25 24.875H17.25C17.865 24.875 18.375 25.385 18.375 26C18.375 26.615 17.865 27.125 17.25 27.125Z" fill="#003D86"/>
</svg>
