<svg width="24" height="24" viewBox="0 0 24 24" fill="none" xmlns="http://www.w3.org/2000/svg">
<path opacity="0.4" d="M21.49 7.80863V7.81V16.19C21.49 17.9106 20.9791 19.2238 20.0964 20.1064C19.2138 20.9891 17.9006 21.5 16.18 21.5H7.81C6.08945 21.5 4.77634 20.9891 3.89377 20.1054C3.01114 19.2217 2.5 17.9059 2.5 16.18V7.81C2.5 6.08944 3.01093 4.77618 3.89355 3.89355C4.77618 3.01093 6.08944 2.5 7.81 2.5H16.19C17.9107 2.5 19.2237 3.01097 20.105 3.89333C20.9861 4.77559 21.4947 6.08838 21.49 7.80863Z" fill="white" stroke="#1D75BC"/>
<path d="M17.8333 7.5H6.16667C5.52889 7.5 5 7.16 5 6.75C5 6.34 5.52889 6 6.16667 6H17.8333C18.4711 6 19 6.34 19 6.75C19 7.16 18.4711 7.5 17.8333 7.5Z" fill="#1D75BC"/>
<path d="M16 10.5H6C5.45333 10.5 5 10.16 5 9.75C5 9.34 5.45333 9 6 9H16C16.5467 9 17 9.34 17 9.75C17 10.16 16.5467 10.5 16 10.5Z" fill="#1D75BC"/>
<path d="M14.1667 13.5H5.83333C5.37778 13.5 5 13.16 5 12.75C5 12.34 5.37778 12 5.83333 12H14.1667C14.6222 12 15 12.34 15 12.75C15 13.16 14.6222 13.5 14.1667 13.5Z" fill="#1D75BC"/>
<path d="M12.3333 16.5H5.66667C5.30222 16.5 5 16.16 5 15.75C5 15.34 5.30222 15 5.66667 15H12.3333C12.6978 15 13 15.34 13 15.75C13 16.16 12.6978 16.5 12.3333 16.5Z" fill="#1D75BC"/>
</svg>
