<svg width="24" height="24" viewBox="0 0 24 24" fill="none" xmlns="http://www.w3.org/2000/svg">
<path opacity="0.4" d="M21 21.5H3C2.86614 21.5 2.75 21.3839 2.75 21.25C2.75 21.1161 2.86614 21 3 21H21C21.1339 21 21.25 21.1161 21.25 21.25C21.25 21.3839 21.1339 21.5 21 21.5Z" fill="#292D32" stroke="#003D86"/>
<path opacity="0.4" d="M18.6665 3.83353L18.6665 3.83353L18.6682 3.8353C19.6132 4.7708 19.9982 5.60868 19.99 6.41492L19.99 6.41492V6.41997C19.99 7.19744 19.6051 8.02725 18.6683 8.95463L18.6682 8.95462L18.665 8.95789L17.5055 10.1271C15.0576 9.40907 13.0956 7.44892 12.3751 5.00197L13.5436 3.83353C14.4859 2.89117 15.3375 2.50115 16.1205 2.50621C16.9053 2.51129 17.7468 2.91386 18.6665 3.83353Z" fill="white" stroke="#003D86"/>
<path d="M15.61 11.53C15.32 11.39 15.04 11.25 14.77 11.09C14.55 10.96 14.34 10.82 14.13 10.67C13.96 10.56 13.76 10.4 13.57 10.24C13.55 10.23 13.48 10.17 13.4 10.09C13.07 9.80999 12.7 9.44999 12.37 9.04999C12.34 9.02999 12.29 8.95999 12.22 8.86999C12.12 8.74999 11.95 8.54999 11.8 8.31999C11.68 8.16999 11.54 7.94999 11.41 7.72999C11.25 7.45999 11.11 7.18999 10.97 6.90999C10.83 6.60999 10.72 6.31999 10.62 6.04999L4.34001 12.33C4.21001 12.46 4.09001 12.71 4.06001 12.88L3.52001 16.71C3.42001 17.39 3.61001 18.03 4.03001 18.46C4.39001 18.81 4.89001 19 5.43001 19C5.55001 19 5.67001 18.99 5.79001 18.97L9.63001 18.43C9.81001 18.4 10.06 18.28 10.18 18.15L16.46 11.87C16.18 11.77 15.91 11.66 15.61 11.53Z" fill="#003D86"/>
</svg>
