<svg width="24" height="24" viewBox="0 0 24 24" fill="none" xmlns="http://www.w3.org/2000/svg">
<rect width="24" height="24" rx="5" fill="#FFAF53"/>
<path d="M17.0484 12.1985C17.0484 12.0593 17.1037 11.9258 17.2021 11.8274C17.3006 11.7289 17.4341 11.6736 17.5733 11.6736C17.7125 11.6736 17.8461 11.7289 17.9445 11.8274C18.0429 11.9258 18.0982 12.0593 18.0982 12.1985V17.9727C18.0982 18.1119 18.0429 18.2455 17.9445 18.3439C17.8461 18.4424 17.7125 18.4977 17.5733 18.4977H6.02493C5.88571 18.4977 5.75219 18.4424 5.65375 18.3439C5.5553 18.2455 5.5 18.1119 5.5 17.9727V6.42434C5.5 6.28512 5.5553 6.1516 5.65375 6.05316C5.75219 5.95472 5.88571 5.89941 6.02493 5.89941H11.7991C11.9383 5.89941 12.0719 5.95472 12.1703 6.05316C12.2687 6.1516 12.324 6.28512 12.324 6.42434C12.324 6.56356 12.2687 6.69708 12.1703 6.79552C12.0719 6.89396 11.9383 6.94927 11.7991 6.94927H6.54985V17.4478H17.0484V12.1985Z" fill="white"/>
<path d="M11.1094 12.8914L11.9755 12.7676L17.2962 7.44795C17.3463 7.39952 17.3863 7.3416 17.4138 7.27756C17.4413 7.21352 17.4558 7.14463 17.4564 7.07494C17.457 7.00524 17.4437 6.93611 17.4173 6.8716C17.3909 6.80709 17.3519 6.74848 17.3027 6.69919C17.2534 6.64991 17.1948 6.61093 17.1303 6.58454C17.0657 6.55814 16.9966 6.54486 16.9269 6.54547C16.8572 6.54607 16.7883 6.56055 16.7243 6.58806C16.6603 6.61558 16.6023 6.65557 16.5539 6.7057L11.2322 12.0253L11.1083 12.8914H11.1094ZM18.0384 5.9624C18.1847 6.10865 18.3008 6.2823 18.38 6.47342C18.4592 6.66455 18.5 6.86941 18.5 7.0763C18.5 7.28319 18.4592 7.48805 18.38 7.67917C18.3008 7.8703 18.1847 8.04395 18.0384 8.19019L12.5949 13.6337C12.5146 13.7142 12.4104 13.7666 12.2978 13.7828L10.5655 14.0305C10.4848 14.0421 10.4025 14.0347 10.3251 14.009C10.2477 13.9832 10.1774 13.9398 10.1197 13.8821C10.0621 13.8244 10.0186 13.7541 9.99287 13.6767C9.96711 13.5994 9.95973 13.517 9.97133 13.4363L10.2191 11.7041C10.235 11.5916 10.2869 11.4874 10.3671 11.4069L15.8117 5.96345C16.107 5.66823 16.5075 5.50238 16.925 5.50238C17.3426 5.50238 17.7431 5.66823 18.0384 5.96345V5.9624Z" fill="white"/>
</svg>
