<svg width="36" height="36" viewBox="0 0 36 36" fill="none" xmlns="http://www.w3.org/2000/svg">
<path opacity="0.4" d="M17.7096 4.79931L17.5596 4.6H17.3101H12.4201C12.1263 4.6 11.8701 4.34386 11.8701 4.05C11.8701 3.75614 12.1263 3.5 12.4201 3.5H23.5801C26.9625 3.5 29.7113 6.24514 29.7401 9.63205V10.17C29.7401 10.4639 29.484 10.72 29.1901 10.72C28.8963 10.72 28.6401 10.4639 28.6401 10.17V9.645C28.6401 9.32364 28.6062 9.01727 28.5382 8.71154L28.4731 8.41857L28.1839 8.33824C27.5996 8.17593 26.9996 8.095 26.3851 8.095H20.8051C20.3548 8.095 20.2494 8.06381 20.1955 8.03435C20.1301 7.99862 20.0689 7.93228 19.8092 7.58884C19.8091 7.58871 19.809 7.58858 19.8089 7.58845L17.7096 4.79931Z" fill="white" stroke="#0F6CBF"/>
<path d="M30.21 9.81C29.565 9.345 28.83 9 28.035 8.805C27.51 8.655 26.94 8.58 26.37 8.58H20.79C19.92 8.58 19.86 8.49 19.395 7.875L17.295 5.085C16.32 3.795 15.555 3 13.11 3H9.63C5.97 3 3 5.97 3 9.63V26.37C3 30.03 5.97 33 9.63 33H26.37C30.03 33 33 30.03 33 26.37V15.21C33 12.975 31.905 11.01 30.21 9.81ZM21.495 24H14.505C13.92 24 13.455 23.535 13.455 22.95C13.455 22.38 13.92 21.9 14.505 21.9H21.48C22.05 21.9 22.53 22.38 22.53 22.95C22.53 23.535 22.065 24 21.495 24Z" fill="#0F6CBF"/>
</svg>
