<svg width="36" height="36" viewBox="0 0 36 36" fill="none" xmlns="http://www.w3.org/2000/svg">
<path opacity="0.4" d="M11.715 3.5H24.285C26.9156 3.5 28.9551 4.28218 30.3364 5.66355C31.7178 7.04493 32.5 9.08443 32.5 11.715V22L3.5 22L3.5 11.715C3.5 9.08443 4.28218 7.04493 5.66355 5.66355C7.04493 4.28218 9.08443 3.5 11.715 3.5Z" fill="#FCFDFF" stroke="#0F6CBF"/>
<path d="M3.5 23H32.5V24.285C32.5 26.9156 31.7178 28.9551 30.3364 30.3364C28.9551 31.7178 26.9156 32.5 24.285 32.5H11.715C9.08443 32.5 7.04493 31.7178 5.66355 30.3364C4.28218 28.9551 3.5 26.9156 3.5 24.285L3.5 23Z" fill="#0F6CBF" stroke="#0F6CBF"/>
</svg>
