<svg width="31" height="31" viewBox="0 0 31 31" fill="none" xmlns="http://www.w3.org/2000/svg">
<path d="M15.1249 4.00661C15.3642 3.90205 15.6362 3.90205 15.8756 4.00661C20.5241 6.03764 24.9297 8.52046 29.037 11.3994C29.3343 11.6078 29.4845 11.969 29.4228 12.3267C29.361 12.6844 29.0983 12.9743 28.7484 13.0708C27.8922 13.3072 27.0435 13.5617 26.2024 13.8329C22.7886 14.9339 19.5023 16.3192 16.3716 17.961L16.3675 17.9631C16.2255 18.0376 16.0839 18.1125 15.9426 18.188C15.6665 18.3356 15.335 18.3356 15.059 18.188C14.9163 18.1118 14.7733 18.0361 14.63 17.961C13.0819 17.1492 11.4958 16.4001 9.87512 15.7171V15.4374C9.87512 15.2733 9.9594 15.1276 10.0898 15.0486C11.9712 13.9088 13.9118 12.8571 15.906 11.8992C16.3728 11.675 16.5694 11.1149 16.3452 10.6482C16.121 10.1815 15.5609 9.98488 15.0942 10.2091C13.0451 11.1933 11.0512 12.2739 9.11824 13.4449C8.55151 13.7882 8.17053 14.3502 8.04521 14.9797C6.97656 14.5686 5.89386 14.1857 4.79799 13.8323C3.95695 13.5611 3.10817 13.3071 2.25205 13.0708C1.90215 12.9742 1.63945 12.6844 1.57767 12.3267C1.5159 11.969 1.66615 11.6078 1.96339 11.3994C6.07069 8.52045 10.4763 6.03764 15.1249 4.00661Z" fill="white"/>
<path d="M16.8262 19.8418C19.8748 18.2129 23.0777 16.8358 26.4074 15.7382C26.5752 17.5068 26.6823 19.2928 26.7267 21.0944C26.7362 21.4809 26.5075 21.8336 26.1507 21.9826C22.5868 23.4705 19.1968 25.2926 16.02 27.4096C15.7052 27.6194 15.2951 27.6194 14.9803 27.4096C11.8035 25.2926 8.41353 23.4705 4.84962 21.9826C4.49282 21.8336 4.26407 21.4809 4.2736 21.0944C4.31798 19.2927 4.42513 17.5065 4.59296 15.7378C5.74421 16.1173 6.88031 16.5302 8.00012 16.9753V18.5633C7.43968 18.8875 7.06262 19.4935 7.06262 20.1875C7.06262 20.8066 7.36272 21.3557 7.8254 21.6971C7.7135 22.1729 7.5479 22.6385 7.32858 23.0843C7.89445 23.3514 8.45548 23.6271 9.0115 23.9112C9.32816 23.2671 9.55777 22.5911 9.7003 21.9009C10.3557 21.6087 10.8126 20.9515 10.8126 20.1875C10.8126 19.4935 10.4356 18.8875 9.87512 18.5633V17.7574C11.3394 18.3972 12.7737 19.0928 14.1754 19.8418C15.0036 20.2843 15.998 20.2843 16.8262 19.8418Z" fill="white"/>
<path d="M6.0779 24.8279C6.60182 24.304 7.0189 23.7138 7.32858 23.0843C7.89445 23.3514 8.45548 23.6271 9.0115 23.9112C8.61331 24.721 8.07717 25.4802 7.40373 26.1537C7.03761 26.5198 6.44402 26.5198 6.0779 26.1537C5.71178 25.7876 5.71178 25.194 6.0779 24.8279Z" fill="white"/>
</svg>
