<svg width="36" height="36" viewBox="0 0 36 36" fill="none" xmlns="http://www.w3.org/2000/svg">
<path d="M27.405 5.025C26.7 4.92 25.89 4.875 24.75 4.875H11.25C10.125 4.875 9.3 4.92 8.64 5.01C3.615 5.565 2.625 8.55 2.625 13.5V22.5C2.625 27.45 3.615 30.435 8.595 30.975C9.3 31.08 10.11 31.125 11.25 31.125H24.75C25.875 31.125 26.7 31.08 27.36 30.99C32.385 30.435 33.375 27.465 33.375 22.5V13.5C33.375 8.55 32.385 5.565 27.405 5.025Z" fill="#0F6CBF"/>
<path d="M25.5 16.125H20.25C19.635 16.125 19.125 15.615 19.125 15C19.125 14.385 19.635 13.875 20.25 13.875H25.5C26.115 13.875 26.625 14.385 26.625 15C26.625 15.615 26.115 16.125 25.5 16.125Z" fill="white"/>
<path d="M25.5 15.875H20.25C19.7731 15.875 19.375 15.4769 19.375 15C19.375 14.5231 19.7731 14.125 20.25 14.125H25.5C25.9769 14.125 26.375 14.5231 26.375 15C26.375 15.4769 25.9769 15.875 25.5 15.875Z" stroke="#0F6CBF" stroke-opacity="0.4" stroke-width="0.5"/>
<path d="M15.1499 16.5C14.3249 16.5 13.6499 15.825 13.6499 15C13.6499 14.175 14.3099 13.5 15.1499 13.5H15.1649C15.9899 13.5 16.6649 14.175 16.6649 15C16.6649 15.825 15.9899 16.5 15.1499 16.5Z" fill="white"/>
<path d="M15.1499 16.25C14.463 16.25 13.8999 15.6869 13.8999 15C13.8999 14.3114 14.4496 13.75 15.1499 13.75H15.1649C15.8518 13.75 16.4149 14.3131 16.4149 15C16.4149 15.6853 15.8535 16.25 15.1499 16.25Z" stroke="#0F6CBF" stroke-opacity="0.4" stroke-width="0.5"/>
<path d="M10.6499 16.5C9.8249 16.5 9.1499 15.825 9.1499 15C9.1499 14.175 9.8099 13.5 10.6499 13.5C11.4749 13.5 12.1499 14.175 12.1499 15C12.1499 15.825 11.4899 16.5 10.6499 16.5Z" fill="white"/>
<path d="M10.6499 16.25C9.96297 16.25 9.3999 15.6869 9.3999 15C9.3999 14.3114 9.9496 13.75 10.6499 13.75C11.3368 13.75 11.8999 14.3131 11.8999 15C11.8999 15.6886 11.3502 16.25 10.6499 16.25Z" stroke="#0F6CBF" stroke-opacity="0.4" stroke-width="0.5"/>
<path d="M25.5 24.375H10.53C9.91501 24.375 9.39001 23.865 9.39001 23.25C9.39001 22.635 9.88501 22.125 10.5 22.125H25.5C26.115 22.125 26.625 22.635 26.625 23.25C26.625 23.865 26.115 24.375 25.5 24.375Z" fill="white"/>
<path d="M25.5 24.125H10.53C10.0488 24.125 9.64001 23.7227 9.64001 23.25C9.64001 22.7687 10.0274 22.375 10.5 22.375H25.5C25.9769 22.375 26.375 22.7731 26.375 23.25C26.375 23.7269 25.9769 24.125 25.5 24.125Z" stroke="#0F6CBF" stroke-opacity="0.4" stroke-width="0.5"/>
</svg>
