<svg width="24" height="24" viewBox="0 0 24 24" fill="none" xmlns="http://www.w3.org/2000/svg">
<path d="M20.1933 14.5059L20.1931 14.5067C19.7832 16.2682 19.192 17.4136 18.4 18.0914C17.6248 18.7547 16.5809 19.0339 15.1079 18.8923L15.1079 18.8922L15.0999 18.8916C14.6304 18.854 14.1165 18.7689 13.5574 18.634L13.5559 18.6336L11.8759 18.2336L11.8756 18.2335C9.83827 17.7499 8.63107 17.0317 8.01355 16.0375C7.39638 15.0438 7.28827 13.6454 7.76686 11.6041L7.76692 11.6039L8.74677 7.41453C8.7468 7.4144 8.74683 7.41427 8.74686 7.41415C8.94197 6.585 9.17137 5.88463 9.44873 5.32067L9.44874 5.32067L9.45021 5.31764C9.99075 4.1996 10.6905 3.54259 11.5994 3.2289C12.5316 2.90719 13.7556 2.92119 15.385 3.30658L15.3864 3.30691L17.0562 3.69687C17.0562 3.69688 17.0563 3.69689 17.0564 3.69691C19.1031 4.17564 20.3118 4.89396 20.9289 5.88861C21.5461 6.88329 21.652 8.28397 21.1733 10.3259L20.1933 14.5059Z" fill="#003D86" stroke="#0F6CBF"/>
<path d="M15.06 19.39C14.44 19.81 13.66 20.16 12.71 20.47L11.13 20.99C7.15998 22.27 5.06997 21.2 3.77997 17.23L2.49997 13.28C1.21997 9.30998 2.27997 7.20998 6.24997 5.92998L7.82997 5.40998C8.23997 5.27998 8.62997 5.16998 8.99997 5.09998C8.69997 5.70998 8.45997 6.44998 8.25997 7.29998L7.27997 11.49C6.29997 15.67 7.58998 17.73 11.76 18.72L13.44 19.12C14.02 19.26 14.56 19.35 15.06 19.39Z" fill="#003D86"/>
<path d="M17.49 10.51C17.43 10.51 17.37 10.5 17.3 10.49L12.45 9.26002C12.05 9.16002 11.81 8.75002 11.91 8.35002C12.01 7.95002 12.42 7.71002 12.82 7.81002L17.67 9.04002C18.07 9.14002 18.31 9.55002 18.21 9.95002C18.13 10.28 17.82 10.51 17.49 10.51Z" fill="#FEFEFF"/>
<path d="M14.56 13.89C14.5 13.89 14.44 13.88 14.37 13.87L11.46 13.13C11.06 13.03 10.82 12.62 10.92 12.22C11.02 11.82 11.43 11.58 11.83 11.68L14.74 12.42C15.14 12.52 15.38 12.93 15.28 13.33C15.2 13.67 14.9 13.89 14.56 13.89Z" fill="#FEFEFF"/>
</svg>
