<svg width="31" height="30" viewBox="0 0 31 30" fill="none" xmlns="http://www.w3.org/2000/svg">
<path d="M25.4272 4.6875H4.80225C4.30497 4.6875 3.82805 4.88504 3.47642 5.23667C3.12479 5.58831 2.92725 6.06522 2.92725 6.5625V23.4375C2.92725 23.9348 3.12479 24.4117 3.47642 24.7633C3.82805 25.115 4.30497 25.3125 4.80225 25.3125H6.37256C6.55008 25.313 6.724 25.2625 6.8736 25.1669C7.02319 25.0713 7.14215 24.9347 7.21631 24.7734C7.67502 23.8135 8.39605 23.0029 9.29606 22.4355C10.1961 21.868 11.2383 21.5669 12.3022 21.5669C13.3662 21.5669 14.4084 21.868 15.3084 22.4355C16.2084 23.0029 16.9295 23.8135 17.3882 24.7734C17.4623 24.9347 17.5813 25.0713 17.7309 25.1669C17.8805 25.2625 18.0544 25.313 18.2319 25.3125H25.4272C25.9245 25.3125 26.4014 25.115 26.7531 24.7633C27.1047 24.4117 27.3022 23.9348 27.3022 23.4375V6.5625C27.3022 6.06522 27.1047 5.58831 26.7531 5.23667C26.4014 4.88504 25.9245 4.6875 25.4272 4.6875ZM12.3022 19.6875C11.5606 19.6875 10.8355 19.4676 10.2189 19.0555C9.60217 18.6435 9.12153 18.0578 8.8377 17.3726C8.55387 16.6873 8.47961 15.9333 8.6243 15.2059C8.769 14.4785 9.12615 13.8103 9.6506 13.2859C10.175 12.7614 10.8432 12.4043 11.5707 12.2596C12.2981 12.1149 13.0521 12.1891 13.7373 12.473C14.4225 12.7568 15.0082 13.2374 15.4203 13.8541C15.8323 14.4708 16.0522 15.1958 16.0522 15.9375C16.0492 16.9311 15.6531 17.8831 14.9505 18.5857C14.2479 19.2883 13.2959 19.6844 12.3022 19.6875ZM25.4272 23.4375H18.7944C18.3883 22.7331 17.8697 22.0997 17.2593 21.5625H22.6147C22.8634 21.5625 23.1018 21.4637 23.2777 21.2879C23.4535 21.1121 23.5522 20.8736 23.5522 20.625V9.375C23.5522 9.12636 23.4535 8.8879 23.2777 8.71209C23.1018 8.53627 22.8634 8.4375 22.6147 8.4375H7.61475C7.36611 8.4375 7.12765 8.53627 6.95183 8.71209C6.77602 8.8879 6.67725 9.12636 6.67725 9.375V20.625C6.67844 20.8319 6.74805 21.0326 6.87523 21.1958C7.00241 21.3591 7.18002 21.4756 7.38037 21.5273C6.75516 22.0731 6.22456 22.7185 5.81006 23.4375H4.80225V6.5625H25.4272V23.4375Z" fill="#1d75bc"/>
</svg>
