<svg width="40" height="40" viewBox="0 0 40 40" fill="none" xmlns="http://www.w3.org/2000/svg">
<path d="M35.3905 8.81241L20.3905 3.81241C20.136 3.73408 19.8638 3.73408 19.6093 3.81241L4.62491 8.81241H4.59366L4.43741 8.89053H4.42178L4.26553 8.98428C4.26553 8.99991 4.24991 8.99991 4.23429 9.01553L4.10929 9.12491L3.99991 9.24991C3.99991 9.26553 3.98429 9.26553 3.98429 9.28116L3.89054 9.42178C3.89054 9.43741 3.89054 9.43741 3.87491 9.45303L3.81241 9.59366L3.76554 9.76553V9.81241C3.75012 9.87363 3.74485 9.93697 3.74991 9.99991V22.4999C3.74991 22.8314 3.88161 23.1494 4.11603 23.3838C4.35045 23.6182 4.66839 23.7499 4.99991 23.7499C5.33143 23.7499 5.64937 23.6182 5.88379 23.3838C6.11821 23.1494 6.24991 22.8314 6.24991 22.4999V11.7343L11.4999 13.4843C10.5136 15.063 9.99361 16.8884 9.99991 18.7499C10.0005 20.4429 10.4309 22.108 11.2507 23.5892C12.0706 25.0704 13.2531 26.3193 14.6874 27.2187C11.7068 28.3462 9.16219 30.3929 7.42178 33.0624C7.24439 33.3429 7.18429 33.6819 7.25443 34.0063C7.32457 34.3307 7.51935 34.6146 7.79678 34.7968C7.93293 34.887 8.08563 34.9493 8.24603 34.9801C8.40643 35.0108 8.57134 35.0095 8.73121 34.976C8.89108 34.9426 9.04272 34.8778 9.17735 34.7853C9.31199 34.6929 9.42693 34.5746 9.51553 34.4374C10.6501 32.6898 12.2036 31.2534 14.0346 30.2591C15.8657 29.2647 17.9163 28.7439 19.9999 28.7439C22.0835 28.7439 24.1341 29.2647 25.9652 30.2591C27.7963 31.2534 29.3497 32.6898 30.4843 34.4374C30.5984 34.6107 30.7538 34.7528 30.9366 34.851C31.1194 34.9492 31.3237 35.0004 31.5312 34.9999C31.7706 35.0024 32.0051 34.9315 32.203 34.7968C32.4805 34.6146 32.6752 34.3307 32.7454 34.0063C32.8155 33.6819 32.7554 33.3429 32.578 33.0624C30.8376 30.3929 28.293 28.3462 25.3124 27.2187C26.7467 26.3193 27.9292 25.0704 28.7491 23.5892C29.5689 22.108 29.9993 20.4429 29.9999 18.7499C30.0062 16.8884 29.4862 15.063 28.4999 13.4843L35.3905 11.1874C35.6406 11.1052 35.8584 10.9462 36.0127 10.7329C36.1671 10.5197 36.2502 10.2632 36.2502 9.99991C36.2502 9.73666 36.1671 9.48013 36.0127 9.2669C35.8584 9.05366 35.6406 8.89461 35.3905 8.81241ZM19.9999 26.2499C18.0108 26.2499 16.1031 25.4597 14.6966 24.0532C13.2901 22.6467 12.4999 20.739 12.4999 18.7499C12.5029 17.1495 13.0115 15.5909 13.953 14.2968L19.6093 16.1874C19.863 16.2709 20.1368 16.2709 20.3905 16.1874L26.0468 14.2968C26.9883 15.5909 27.4969 17.1495 27.4999 18.7499C27.4999 20.739 26.7097 22.6467 25.3032 24.0532C23.8967 25.4597 21.989 26.2499 19.9999 26.2499Z" fill="#FDFDF5"/>
</svg>
