<svg width="40" height="40" viewBox="0 0 40 40" fill="none" xmlns="http://www.w3.org/2000/svg">
<path d="M33.5007 15.3667C30.484 15.3667 29.2507 13.2334 30.7507 10.6167C31.6173 9.10006 31.1007 7.16672 29.584 6.30006L26.7007 4.65006C25.384 3.86672 23.684 4.33339 22.9007 5.65006L22.7173 5.96672C21.2173 8.58339 18.7507 8.58339 17.234 5.96672L17.0506 5.65006C16.3006 4.33339 14.6007 3.86672 13.284 4.65006L10.4007 6.30006C8.88398 7.16672 8.36732 9.11672 9.23398 10.6334C10.7507 13.2334 9.51732 15.3667 6.50065 15.3667C4.76732 15.3667 3.33398 16.7834 3.33398 18.5334V21.4667C3.33398 23.2001 4.75065 24.6334 6.50065 24.6334C9.51732 24.6334 10.7507 26.7667 9.23398 29.3834C8.36732 30.9001 8.88398 32.8334 10.4007 33.7001L13.284 35.3501C14.6007 36.1334 16.3007 35.6667 17.084 34.3501L17.2673 34.0334C18.7673 31.4167 21.234 31.4167 22.7506 34.0334L22.934 34.3501C23.7173 35.6667 25.4173 36.1334 26.734 35.3501L29.6173 33.7001C31.134 32.8334 31.6506 30.8834 30.784 29.3834C29.2673 26.7667 30.5007 24.6334 33.5173 24.6334C35.2507 24.6334 36.684 23.2167 36.684 21.4667V18.5334C36.6673 16.8001 35.2507 15.3667 33.5007 15.3667ZM20.0007 25.4167C17.0173 25.4167 14.584 22.9834 14.584 20.0001C14.584 17.0167 17.0173 14.5834 20.0007 14.5834C22.984 14.5834 25.4173 17.0167 25.4173 20.0001C25.4173 22.9834 22.984 25.4167 20.0007 25.4167Z" fill="white"/>
</svg>
