<svg width="20" height="20" viewBox="0 0 20 20" fill="none" xmlns="http://www.w3.org/2000/svg">
<path d="M14.19 0H5.81C2.17 0 0 2.17 0 5.81V14.19C0 17.83 2.17 20 5.81 20H14.19C17.83 20 20 17.83 20 14.19V5.81C20 2.17 17.83 0 14.19 0Z" fill="#003D86"/>
<path d="M16.3101 6.87C16.3101 7.28 15.9801 7.62 15.5601 7.62H10.3101C9.90006 7.62 9.56006 7.28 9.56006 6.87C9.56006 6.46 9.90006 6.12 10.3101 6.12H15.5601C15.9801 6.12 16.3101 6.46 16.3101 6.87Z" fill="white"/>
<path d="M7.97006 5.9L5.72006 8.15C5.57006 8.3 5.38006 8.37 5.19006 8.37C5.00006 8.37 4.80006 8.3 4.66006 8.15L3.91006 7.4C3.61006 7.11 3.61006 6.63 3.91006 6.34C4.20006 6.05 4.67006 6.05 4.97006 6.34L5.19006 6.56L6.91006 4.84C7.20006 4.55 7.67006 4.55 7.97006 4.84C8.26006 5.13 8.26006 5.61 7.97006 5.9Z" fill="white"/>
<path d="M16.3101 13.87C16.3101 14.28 15.9801 14.62 15.5601 14.62H10.3101C9.90006 14.62 9.56006 14.28 9.56006 13.87C9.56006 13.46 9.90006 13.12 10.3101 13.12H15.5601C15.9801 13.12 16.3101 13.46 16.3101 13.87Z" fill="white"/>
<path d="M7.97006 12.9L5.72006 15.15C5.57006 15.3 5.38006 15.37 5.19006 15.37C5.00006 15.37 4.80006 15.3 4.66006 15.15L3.91006 14.4C3.61006 14.11 3.61006 13.63 3.91006 13.34C4.20006 13.05 4.67006 13.05 4.97006 13.34L5.19006 13.56L6.91006 11.84C7.20006 11.55 7.67006 11.55 7.97006 11.84C8.26006 12.13 8.26006 12.61 7.97006 12.9Z" fill="white"/>
</svg>
