<svg width="31" height="30" viewBox="0 0 31 30" fill="none" xmlns="http://www.w3.org/2000/svg">
<path d="M19.7466 8.1562C19.7466 8.41401 19.729 8.67182 19.6968 8.92671C19.7115 8.82417 19.7261 8.7187 19.7378 8.61616C19.6675 9.12593 19.5327 9.62104 19.3365 10.0957C19.3745 10.0019 19.4156 9.90815 19.4536 9.8144C19.2574 10.2773 19.0054 10.7109 18.6978 11.1093C18.7593 11.0302 18.8208 10.9511 18.8824 10.872C18.5777 11.2646 18.2232 11.6191 17.8306 11.9238C17.9097 11.8623 17.9888 11.8007 18.0679 11.7392C17.6695 12.0439 17.2359 12.2988 16.773 12.4951C16.8667 12.457 16.9605 12.416 17.0542 12.3779C16.5796 12.5742 16.0845 12.7089 15.5747 12.7792C15.6773 12.7646 15.7827 12.7499 15.8853 12.7382C15.3726 12.8056 14.857 12.8056 14.3443 12.7382C14.4468 12.7529 14.5523 12.7675 14.6548 12.7792C14.145 12.7089 13.6499 12.5742 13.1753 12.3779C13.2691 12.416 13.3628 12.457 13.4566 12.4951C12.9937 12.2988 12.5601 12.0468 12.1616 11.7392C12.2407 11.8007 12.3198 11.8623 12.3989 11.9238C12.0064 11.6191 11.6519 11.2646 11.3472 10.872C11.4087 10.9511 11.4702 11.0302 11.5318 11.1093C11.2271 10.7109 10.9722 10.2773 10.7759 9.8144C10.814 9.90815 10.855 10.0019 10.8931 10.0957C10.6968 9.62104 10.562 9.12593 10.4917 8.61616C10.5064 8.7187 10.521 8.82417 10.5327 8.92671C10.4654 8.41401 10.4654 7.89839 10.5327 7.38569C10.5181 7.48823 10.5034 7.5937 10.4917 7.69624C10.562 7.18647 10.6968 6.69135 10.8931 6.21674C10.855 6.31049 10.814 6.40425 10.7759 6.498C10.9722 6.0351 11.2241 5.60151 11.5318 5.20307C11.4702 5.28218 11.4087 5.36128 11.3472 5.44038C11.6519 5.0478 12.0064 4.69331 12.3989 4.38862C12.3198 4.45014 12.2407 4.51167 12.1616 4.57319C12.5601 4.2685 12.9937 4.01362 13.4566 3.81733C13.3628 3.85542 13.2691 3.89643 13.1753 3.93452C13.6499 3.73823 14.145 3.60346 14.6548 3.53315C14.5523 3.5478 14.4468 3.56245 14.3443 3.57417C14.857 3.50678 15.3726 3.50678 15.8853 3.57417C15.7827 3.55952 15.6773 3.54487 15.5747 3.53315C16.0845 3.60346 16.5796 3.73823 17.0542 3.93452C16.9605 3.89643 16.8667 3.85542 16.773 3.81733C17.2359 4.01362 17.6695 4.26557 18.0679 4.57319C17.9888 4.51167 17.9097 4.45014 17.8306 4.38862C18.2232 4.69331 18.5777 5.0478 18.8824 5.44038C18.8208 5.36128 18.7593 5.28218 18.6978 5.20307C19.0025 5.60151 19.2574 6.0351 19.4536 6.498C19.4156 6.40425 19.3745 6.31049 19.3365 6.21674C19.5327 6.69135 19.6675 7.18647 19.7378 7.69624C19.7232 7.5937 19.7085 7.48823 19.6968 7.38569C19.729 7.64057 19.7437 7.89839 19.7466 8.1562C19.7495 8.7685 20.2827 9.35737 20.9185 9.32807C21.5513 9.29878 22.0933 8.81245 22.0904 8.1562C22.0845 6.75288 21.6626 5.31733 20.8365 4.17475C20.6138 3.86714 20.3765 3.56538 20.1128 3.29292C19.8462 3.01753 19.5533 2.78022 19.2486 2.54878C18.6949 2.1269 18.0767 1.81635 17.4204 1.57612C14.7749 0.606394 11.5845 1.47065 9.79445 3.65034C9.54836 3.94917 9.31399 4.25971 9.11477 4.5937C8.91555 4.92475 8.76027 5.27632 8.61672 5.63374C8.34719 6.29585 8.20949 6.99897 8.15383 7.71089C8.04543 9.10542 8.40871 10.5615 9.13527 11.7568C9.83547 12.9111 10.8931 13.9013 12.1294 14.4609C12.4927 14.6249 12.8648 14.7773 13.2515 14.8857C13.6353 14.9912 14.0249 15.0498 14.4204 15.0966C15.1411 15.1816 15.8765 15.123 16.5884 14.9794C19.2925 14.4287 21.5572 12.0996 21.9761 9.36616C22.0376 8.96772 22.0845 8.56928 22.0845 8.16499C22.0874 7.55268 21.5425 6.96382 20.9126 6.99311C20.2798 7.01362 19.7466 7.49995 19.7466 8.1562ZM23.6343 26.4755C23.0601 26.4755 22.4859 26.4755 21.9117 26.4755C20.5435 26.4755 19.1783 26.4755 17.8101 26.4755C16.1636 26.4755 14.5171 26.4755 12.8677 26.4755C11.4468 26.4755 10.0259 26.4755 8.60207 26.4755C7.93703 26.4755 7.27199 26.4814 6.60695 26.4755C6.53371 26.4755 6.46047 26.4697 6.39015 26.4609C6.49269 26.4755 6.59816 26.4902 6.7007 26.5019C6.58351 26.4843 6.47219 26.4521 6.36379 26.4082C6.45754 26.4462 6.55129 26.4873 6.64504 26.5253C6.52785 26.4755 6.41945 26.4111 6.31691 26.332C6.39601 26.3935 6.47512 26.455 6.55422 26.5165C6.46633 26.4433 6.38429 26.3642 6.31398 26.2763C6.37551 26.3554 6.43703 26.4345 6.49855 26.5136C6.41945 26.4111 6.35793 26.3027 6.30519 26.1855C6.34328 26.2792 6.38429 26.373 6.42238 26.4667C6.37844 26.3583 6.34914 26.2441 6.32863 26.1298C6.34328 26.2324 6.35793 26.3378 6.36965 26.4404C6.32277 26.0859 6.355 25.7109 6.355 25.3535C6.355 24.9345 6.355 24.5185 6.355 24.0996C6.355 23.7861 6.37258 23.4755 6.41359 23.165C6.39894 23.2675 6.38429 23.373 6.37258 23.4755C6.45461 22.8749 6.61281 22.2861 6.85012 21.7265C6.81203 21.8203 6.77101 21.914 6.73293 22.0078C6.96144 21.4746 7.25441 20.9736 7.60891 20.5136C7.54738 20.5927 7.48586 20.6718 7.42433 20.7509C7.77883 20.2968 8.18605 19.8867 8.64309 19.5322C8.56398 19.5937 8.48488 19.6552 8.40578 19.7167C8.86574 19.3623 9.36672 19.0693 9.89992 18.8408C9.80617 18.8789 9.71242 18.9199 9.61867 18.958C10.1782 18.7236 10.7642 18.5624 11.3677 18.4804C11.2652 18.4951 11.1597 18.5097 11.0572 18.5214C11.4907 18.4658 11.9214 18.4628 12.3579 18.4628C12.8941 18.4628 13.4302 18.4628 13.9663 18.4628C15.2173 18.4628 16.4683 18.4628 17.7193 18.4628C18.2027 18.4628 18.6831 18.4599 19.1665 18.5214C19.064 18.5068 18.9585 18.4921 18.856 18.4804C19.4566 18.5624 20.0454 18.7206 20.605 18.958C20.5113 18.9199 20.4175 18.8789 20.3238 18.8408C20.857 19.0693 21.3579 19.3623 21.8179 19.7167C21.7388 19.6552 21.6597 19.5937 21.5806 19.5322C22.0347 19.8867 22.4449 20.2939 22.7993 20.7509C22.7378 20.6718 22.6763 20.5927 22.6148 20.5136C22.9693 20.9736 23.2622 21.4746 23.4908 22.0078C23.4527 21.914 23.4117 21.8203 23.3736 21.7265C23.6079 22.2861 23.7691 22.872 23.8511 23.4755C23.8365 23.373 23.8218 23.2675 23.8101 23.165C23.8658 23.6074 23.8687 24.0468 23.8687 24.4921C23.8687 24.9755 23.8687 25.4589 23.8687 25.9423C23.8687 26.1093 23.8745 26.2763 23.854 26.4404C23.8687 26.3378 23.8833 26.2324 23.8951 26.1298C23.8775 26.247 23.8452 26.3583 23.8013 26.4667C23.8394 26.373 23.8804 26.2792 23.9185 26.1855C23.8687 26.3027 23.8042 26.4111 23.7251 26.5136C23.7867 26.4345 23.8482 26.3554 23.9097 26.2763C23.8365 26.3642 23.7574 26.4462 23.6695 26.5165C23.7486 26.455 23.8277 26.3935 23.9068 26.332C23.8042 26.4111 23.6958 26.4726 23.5786 26.5253C23.6724 26.4873 23.7661 26.4462 23.8599 26.4082C23.7515 26.4521 23.6372 26.4814 23.523 26.5019C23.6255 26.4873 23.731 26.4726 23.8335 26.4609C23.7691 26.4697 23.7017 26.4726 23.6343 26.4755C23.3326 26.4785 23.022 26.6044 22.8052 26.8183C22.6031 27.0205 22.4478 27.3544 22.4624 27.6474C22.4917 28.2744 22.9781 28.8281 23.6343 28.8193C24.774 28.8017 25.7759 28.0576 26.1099 26.9648C26.2417 26.5312 26.2124 26.0654 26.2124 25.6201C26.2124 24.6005 26.2447 23.5898 26.0689 22.5791C25.8111 21.0996 25.0669 19.708 24.0474 18.6152C23.0279 17.5224 21.6568 16.7197 20.2066 16.3623C19.3745 16.1572 18.5367 16.1249 17.687 16.1249C16.814 16.1249 15.9439 16.1249 15.0708 16.1249C14.2095 16.1249 13.3511 16.1249 12.4898 16.1249C11.6197 16.1249 10.7554 16.166 9.90871 16.3915C8.47023 16.7724 7.11672 17.5839 6.11769 18.6855C5.10988 19.7958 4.38039 21.1904 4.14308 22.6787C3.98488 23.6777 4.0171 24.6796 4.0171 25.6874C4.0171 26.1503 3.99074 26.6337 4.15773 27.0761C4.37453 27.6445 4.72023 28.0927 5.22707 28.4296C5.62258 28.6904 6.12355 28.8164 6.5923 28.8222C6.82082 28.8251 7.04933 28.8222 7.27785 28.8222C7.86379 28.8222 8.4468 28.8222 9.03273 28.8222C9.86477 28.8222 10.6939 28.8222 11.5259 28.8222C12.4927 28.8222 13.4595 28.8222 14.4263 28.8222C15.4195 28.8222 16.4097 28.8222 17.4029 28.8222C18.3111 28.8222 19.2163 28.8222 20.1245 28.8222C20.8365 28.8222 21.5484 28.8222 22.2574 28.8222C22.6646 28.8222 23.0718 28.8222 23.479 28.8222C23.5318 28.8222 23.5845 28.8222 23.6372 28.8222C24.2495 28.8222 24.8384 28.2831 24.8091 27.6503C24.7798 27.0117 24.2935 26.4755 23.6343 26.4755Z" fill="#003D86"/>
</svg>
